<?xml version="1.0" standalone="no"?>
<!DOCTYPE svg PUBLIC "-//W3C//DTD SVG 20010904//EN"
 "http://www.w3.org/TR/2001/REC-SVG-20010904/DTD/svg10.dtd">
<svg version="1.0" xmlns="http://www.w3.org/2000/svg"
 width="300.000000pt" height="307.000000pt" viewBox="0 0 300.000000 307.000000"
 preserveAspectRatio="xMidYMid meet">
<metadata>
Created by potrace 1.10, written by Peter Selinger 2001-2011
</metadata>
<g transform="translate(0.000000,307.000000) scale(0.100000,-0.100000)"
fill="#000000" stroke="none">
<path d="M1480 2471 c0 -15 -91 -398 -116 -487 -5 -20 -4 -21 49 -11 l55 10 7
210 c4 115 11 204 15 197 4 -7 11 -101 15 -210 l7 -196 54 -10 c47 -9 53 -8
49 6 -16 54 -115 476 -115 491 0 11 -4 19 -10 19 -5 0 -10 -8 -10 -19z"/>
<path d="M870 2145 c0 -3 13 -25 28 -48 16 -23 66 -105 112 -182 46 -77 86
-142 88 -145 2 -3 13 9 25 25 27 37 52 63 95 96 l34 26 -164 100 c-89 54 -175
107 -190 117 -16 10 -28 15 -28 11z m212 -167 c29 -17 63 -39 75 -48 l22 -17
-26 -32 c-39 -47 -55 -41 -107 45 -25 42 -46 78 -46 80 0 12 37 0 82 -28z"/>
<path d="M2069 2126 c-19 -12 -102 -64 -185 -115 l-152 -91 76 -75 c41 -42 76
-74 76 -73 1 2 29 48 61 103 32 55 83 138 112 184 30 46 52 85 50 87 -2 2 -19
-7 -38 -20z m-93 -122 c-3 -9 -6 -20 -6 -24 0 -5 -10 -18 -22 -30 -12 -11 -19
-22 -16 -26 4 -3 0 -13 -7 -22 -8 -10 -23 -28 -34 -42 l-20 -25 -37 39 -37 38
24 19 c13 10 38 25 54 33 17 9 44 24 60 36 36 24 49 25 41 4z"/>
<path d="M1248 2058 c-38 -17 -68 -34 -68 -37 0 -3 28 -22 63 -42 l62 -37 17
72 c9 39 17 72 18 74 1 9 -34 -3 -92 -30z"/>
<path d="M1641 2083 c0 -5 8 -38 17 -74 l18 -66 61 36 c34 20 62 39 63 42 0 7
-132 69 -148 69 -7 0 -12 -3 -11 -7z"/>
<path d="M975 1811 c-31 -61 -55 -131 -44 -131 14 0 133 31 138 35 4 4 -68
125 -74 125 -3 0 -11 -13 -20 -29z"/>
<path d="M1943 1777 l-40 -64 71 -17 c39 -9 74 -16 78 -16 8 0 -38 113 -58
143 -10 16 -16 11 -51 -46z"/>
<path d="M1505 1634 c-93 -46 -176 -83 -182 -83 -7 -1 -13 -5 -13 -10 0 -5 38
-12 84 -16 l83 -7 7 -51 c3 -29 6 -67 6 -84 0 -18 3 -33 8 -33 4 0 33 57 66
128 32 70 71 151 87 181 16 30 28 55 26 56 -1 1 -78 -35 -172 -81z m85 -12 c0
-18 -60 -132 -70 -132 -5 0 -10 5 -10 11 0 5 -13 22 -30 37 l-30 28 63 32 c65
33 77 37 77 24z"/>
<path d="M800 1597 c-135 -32 -252 -61 -260 -64 -11 -4 477 -130 511 -133 5 0
-2 41 -17 98 -2 8 -28 12 -82 12 -127 0 -322 12 -317 20 3 4 94 11 204 15
l198 7 6 51 c4 28 5 51 4 52 -1 1 -112 -25 -247 -58z"/>
<path d="M1934 1606 l10 -54 185 -7 c103 -4 192 -11 199 -15 15 -7 -162 -20
-285 -20 -87 0 -103 -5 -103 -35 0 -13 -4 -35 -10 -49 -5 -14 -6 -26 -2 -26
35 3 523 129 512 133 -8 3 -123 31 -255 62 -132 32 -245 59 -250 62 -8 2 -8
-13 -1 -51z"/>
<path d="M940 1330 c24 -60 49 -110 55 -110 6 0 75 109 75 119 0 4 -24 13 -52
20 -29 6 -63 14 -76 17 l-23 7 21 -53z"/>
<path d="M1972 1362 c-34 -9 -61 -20 -60 -26 6 -21 63 -116 70 -116 9 0 31 41
58 109 22 58 25 56 -68 33z"/>
<path d="M1090 1282 c0 -11 -187 -322 -208 -345 -34 -39 1 -23 124 54 71 44
155 95 186 112 32 18 58 34 58 37 0 3 -19 18 -42 34 -22 16 -54 49 -71 73 -29
40 -47 54 -47 35z m56 -98 l38 -37 -24 -18 c-14 -10 -32 -25 -40 -32 -8 -8
-41 -28 -73 -46 l-58 -33 15 37 c9 20 25 49 36 65 11 15 20 31 20 35 0 7 39
65 44 65 2 0 21 -16 42 -36z"/>
<path d="M1842 1245 c-17 -24 -49 -56 -71 -71 -23 -15 -41 -29 -41 -33 0 -3
24 -19 52 -34 28 -16 112 -67 186 -113 74 -46 136 -83 137 -82 3 3 -216 362
-226 372 -3 3 -19 -14 -37 -39z m73 -81 c54 -84 76 -129 66 -132 -11 -4 -185
107 -180 113 34 40 66 73 71 74 4 1 24 -24 43 -55z"/>
<path d="M1245 1079 c-27 -17 -54 -35 -59 -39 -9 -9 51 -43 117 -66 39 -14 39
-14 33 9 -3 12 -11 46 -18 75 -7 28 -15 52 -18 52 -3 0 -27 -14 -55 -31z"/>
<path d="M1661 1058 c-6 -29 -14 -63 -17 -75 -6 -23 -6 -23 33 -9 45 16 123
54 123 60 0 5 -115 76 -122 76 -3 0 -10 -24 -17 -52z"/>
<path d="M1595 1089 c-11 -4 -34 -8 -51 -8 l-32 -1 -7 -205 c-4 -113 -11 -207
-15 -210 -4 -3 -11 89 -15 204 l-7 209 -51 6 c-28 3 -52 4 -53 3 -1 -1 24
-110 57 -242 32 -132 59 -248 59 -257 0 -10 5 -18 10 -18 6 0 10 9 10 19 0 11
27 129 60 262 33 134 59 243 57 245 -1 1 -11 -2 -22 -7z"/>
</g>
</svg>
