<?xml version="1.0" standalone="no"?>
<!DOCTYPE svg PUBLIC "-//W3C//DTD SVG 20010904//EN"
 "http://www.w3.org/TR/2001/REC-SVG-20010904/DTD/svg10.dtd">
<svg version="1.0" xmlns="http://www.w3.org/2000/svg"
 width="300.000000pt" height="171.000000pt" viewBox="0 0 300.000000 171.000000"
 preserveAspectRatio="xMidYMid meet">
<metadata>
Created by potrace 1.10, written by Peter Selinger 2001-2011
</metadata>
<g transform="translate(0.000000,171.000000) scale(0.100000,-0.100000)"
fill="#000000" stroke="none">
<path d="M1274 1102 c-51 -8 -55 -24 -56 -248 l-1 -208 26 -22 c26 -22 33 -23
258 -23 305 0 279 -23 279 257 0 199 -1 210 -21 228 -19 17 -39 19 -242 19
-122 0 -232 -1 -243 -3z m478 -29 c16 -15 18 -35 18 -216 0 -172 -2 -203 -17
-219 -15 -16 -36 -18 -251 -18 -205 0 -238 2 -254 17 -16 15 -18 35 -18 216 0
172 2 203 17 219 15 16 36 18 251 18 205 0 238 -2 254 -17z"/>
<path d="M1270 1035 c0 -12 14 -15 65 -15 51 0 65 3 65 15 0 12 -14 15 -65 15
-51 0 -65 -3 -65 -15z"/>
<path d="M1434 1025 c-15 -23 -22 -25 -90 -25 -70 0 -74 -1 -74 -22 l0 -23
230 0 230 0 0 48 0 47 -140 0 c-138 0 -140 0 -156 -25z m260 9 c25 -10 20 -51
-6 -58 -36 -9 -256 -7 -262 3 -4 5 8 21 25 35 28 24 38 26 129 26 54 0 105 -3
114 -6z"/>
<path d="M1454 921 c-71 -31 -97 -132 -49 -189 54 -64 131 -67 184 -6 44 50
44 110 -2 160 -34 38 -91 53 -133 35z m114 -56 c30 -35 29 -86 -2 -122 -19
-22 -32 -28 -66 -28 -85 0 -121 95 -60 157 27 26 36 30 68 25 22 -4 46 -17 60
-32z"/>
<path d="M1462 853 c-24 -21 -32 -54 -15 -60 7 -3 17 6 22 20 5 13 19 27 31
30 12 3 19 10 15 16 -9 16 -30 13 -53 -6z"/>
</g>
</svg>
